<svg width="32" height="31" viewBox="0 0 32 31" fill="none" xmlns="http://www.w3.org/2000/svg">
<path d="M15.7607 0.151855C17.8847 0.151856 19.607 1.87373 19.6074 3.99756V10.9233H27.3018L27.5 10.9282C29.5322 11.0313 31.1484 12.7123 31.1484 14.77C31.1482 16.8275 29.532 18.5078 27.5 18.6108L27.3018 18.6157H19.6074V27.0747L19.6025 27.2729C19.4995 29.3051 17.8185 30.9214 15.7607 30.9214C13.7033 30.921 12.023 29.3049 11.9199 27.2729L11.915 27.0747V18.6157H4.22461C2.10095 18.6153 0.379195 16.8937 0.378906 14.77C0.378906 12.6461 2.10078 10.9237 4.22461 10.9233H11.915V3.99756C11.9154 1.87395 13.6371 0.152214 15.7607 0.151855Z" fill="#4C4C4C"/>
</svg>
