<svg width="22" height="13" viewBox="0 0 22 13" fill="none" xmlns="http://www.w3.org/2000/svg">
<path d="M20.8036 2.81998L11.6846 11.939C11.5576 12.0665 11.4066 12.1676 11.2403 12.2367C11.074 12.3057 10.8958 12.3413 10.7157 12.3413C10.5357 12.3413 10.3575 12.3057 10.1912 12.2367C10.0249 12.1676 9.87393 12.0665 9.74686 11.939L0.62789 2.81998C0.370924 2.56302 0.226562 2.2145 0.226563 1.85109C0.226563 1.48769 0.370924 1.13917 0.62789 0.882204C0.884856 0.625238 1.23338 0.480876 1.59678 0.480876C1.96018 0.480876 2.30871 0.625238 2.56567 0.882204L10.7169 9.03342L18.8681 0.881064C19.1251 0.624099 19.4736 0.479736 19.837 0.479736C20.2004 0.479736 20.5489 0.624099 20.8059 0.881064C21.0628 1.13803 21.2072 1.48655 21.2072 1.84995C21.2072 2.21336 21.0628 2.56188 20.8059 2.81884L20.8036 2.81998Z" fill="#444444"/>
</svg>
