<svg width="22" height="30" viewBox="0 0 22 30" fill="none" xmlns="http://www.w3.org/2000/svg">
<path d="M10.4433 23.8153C8.51512 23.8153 6.8023 23.3333 5.30487 22.3692C3.82794 21.4051 2.66897 20.041 1.82794 18.2768C0.986919 16.4922 0.566406 14.3897 0.566406 11.9692C0.566406 9.52813 0.986919 7.44608 1.82794 5.723C2.66897 3.97941 3.82794 2.64608 5.30487 1.723C6.8023 0.779412 8.51512 0.307617 10.4433 0.307617C12.392 0.307617 14.1049 0.779412 15.5818 1.723C17.0587 2.64608 18.2177 3.97941 19.0587 5.723C19.8997 7.44608 20.3203 9.52813 20.3203 11.9692C20.3203 14.3897 19.8997 16.4922 19.0587 18.2768C18.2177 20.041 17.0587 21.4051 15.5818 22.3692C14.1049 23.3333 12.392 23.8153 10.4433 23.8153ZM10.4433 20.8307C11.6946 20.8307 12.7818 20.482 13.7049 19.7845C14.6485 19.0666 15.3767 18.041 15.8895 16.7076C16.4023 15.3743 16.6587 13.7948 16.6587 11.9692C16.6587 10.2051 16.4023 8.68711 15.8895 7.41531C15.3767 6.123 14.6485 5.13839 13.7049 4.46146C12.7818 3.76403 11.6946 3.41531 10.4433 3.41531C9.19205 3.41531 8.09461 3.76403 7.15102 4.46146C6.22795 5.13839 5.51 6.123 4.99718 7.41531C4.50487 8.68711 4.25871 10.2051 4.25871 11.9692C4.25871 13.7948 4.50487 15.3743 4.99718 16.7076C5.51 18.041 6.22795 19.0666 7.15102 19.7845C8.09461 20.482 9.19205 20.8307 10.4433 20.8307ZM17.551 29.2922C16.0536 29.2922 14.71 29.0256 13.5203 28.4922C12.3305 27.9794 11.3254 27.2615 10.5049 26.3384C9.68435 25.4358 9.04846 24.4204 8.59718 23.2922L12.2895 22.9538C12.5767 23.7127 12.9972 24.3486 13.551 24.8615C14.1254 25.3743 14.792 25.7435 15.551 25.9692C16.31 26.2153 17.11 26.3384 17.951 26.3384C18.4433 26.3384 18.8844 26.3076 19.2741 26.2461C19.6844 26.1845 20.0536 26.0922 20.3818 25.9692L21.0587 28.6768C20.6895 28.841 20.1972 28.9845 19.5818 29.1076C18.9664 29.2307 18.2895 29.2922 17.551 29.2922Z" fill="#4C4C4C"/>
</svg>
