<svg width="526" height="24" viewBox="0 0 526 24" fill="none" xmlns="http://www.w3.org/2000/svg">
<path d="M523.078 16.9846C523.078 16.4154 523.209 16.0154 523.47 15.7846C523.732 15.5539 524.055 15.4385 524.44 15.4385C524.824 15.4385 525.155 15.5539 525.432 15.7846C525.709 16.0154 525.847 16.4154 525.847 16.9846C525.847 17.5385 525.709 17.9385 525.432 18.1846C525.155 18.4308 524.824 18.5539 524.44 18.5539C524.055 18.5539 523.732 18.4308 523.47 18.1846C523.209 17.9385 523.078 17.5385 523.078 16.9846Z" fill="white"/>
<path d="M514.098 18.4616C512.667 18.4616 511.513 17.9308 510.636 16.8693C509.775 15.7924 509.344 14.1924 509.344 12.0693C509.344 9.94623 509.782 8.34623 510.659 7.26931C511.536 6.177 512.69 5.63085 514.121 5.63085C514.721 5.63085 515.244 5.71546 515.69 5.88469C516.136 6.03854 516.521 6.25392 516.844 6.53084C517.182 6.80777 517.467 7.11546 517.698 7.45392H517.836C517.821 7.25392 517.79 6.96161 517.744 6.577C517.713 6.177 517.698 5.86161 517.698 5.63085V0.692383H519.705V18.2308H518.09L517.79 16.5693H517.698C517.467 16.9232 517.182 17.2462 516.844 17.5385C516.521 17.8155 516.128 18.0385 515.667 18.2078C515.221 18.377 514.698 18.4616 514.098 18.4616ZM514.467 16.777C515.667 16.777 516.505 16.4232 516.982 15.7155C517.475 14.9924 517.721 13.9078 517.721 12.4616V12.0924C517.721 10.5539 517.49 9.377 517.028 8.56161C516.567 7.73084 515.705 7.31546 514.444 7.31546C513.428 7.31546 512.667 7.75392 512.159 8.63085C511.667 9.49238 511.421 10.6539 511.421 12.1155C511.421 13.5924 511.667 14.7385 512.159 15.5539C512.667 16.3693 513.436 16.777 514.467 16.777Z" fill="white"/>
<path d="M502.232 5.63086C503.232 5.63086 504.093 5.86163 504.816 6.32317C505.539 6.7847 506.093 7.43855 506.478 8.2847C506.878 9.11547 507.078 10.0924 507.078 11.2155V12.4386H499.139C499.17 13.8386 499.501 14.9078 500.132 15.6462C500.763 16.3693 501.647 16.7309 502.786 16.7309C503.524 16.7309 504.178 16.6616 504.747 16.5232C505.332 16.3693 505.932 16.1539 506.547 15.877V17.6539C505.947 17.9309 505.355 18.1309 504.77 18.2539C504.201 18.3924 503.509 18.4616 502.693 18.4616C501.586 18.4616 500.609 18.2232 499.763 17.7462C498.916 17.2693 498.255 16.5616 497.778 15.6232C497.301 14.6693 497.062 13.5078 497.062 12.1386C497.062 10.7847 497.278 9.62317 497.709 8.65394C498.139 7.6847 498.739 6.93855 499.509 6.41547C500.293 5.8924 501.201 5.63086 502.232 5.63086ZM502.232 7.2924C501.339 7.2924 500.632 7.60778 500.109 8.23855C499.586 8.85394 499.278 9.71547 499.186 10.8232H505.001C505.001 10.1155 504.901 9.50009 504.701 8.97701C504.501 8.45394 504.193 8.04624 503.778 7.75394C503.378 7.44624 502.863 7.2924 502.232 7.2924Z" fill="white"/>
<path d="M489.162 18.2306L484.754 5.86133H486.9L489.346 13.1536C489.469 13.4921 489.592 13.869 489.715 14.2844C489.839 14.6998 489.946 15.0998 490.039 15.4844C490.146 15.8536 490.215 16.169 490.246 16.4306H490.339C490.385 16.169 490.462 15.8459 490.569 15.4613C490.677 15.0767 490.792 14.6767 490.915 14.2613C491.054 13.8459 491.177 13.4767 491.285 13.1536L493.731 5.86133H495.877L491.446 18.2306H489.162Z" fill="white"/>
<path d="M483.078 5.63086C483.293 5.63086 483.524 5.64624 483.77 5.67701C484.016 5.6924 484.232 5.72317 484.416 5.76932L484.186 7.63855C484.001 7.5924 483.793 7.55394 483.562 7.52317C483.347 7.4924 483.139 7.47701 482.939 7.47701C482.493 7.47701 482.07 7.57701 481.67 7.77701C481.27 7.97701 480.909 8.26163 480.586 8.63086C480.278 8.98471 480.032 9.41548 479.847 9.92317C479.662 10.4309 479.57 11.0001 479.57 11.6309V18.2309H477.562V5.86163H479.201L479.432 8.12317H479.524C479.77 7.66163 480.062 7.24624 480.401 6.87701C480.755 6.4924 481.155 6.1924 481.601 5.97701C482.047 5.74624 482.539 5.63086 483.078 5.63086Z" fill="white"/>
<path d="M469.802 5.63086C470.802 5.63086 471.664 5.86163 472.387 6.32317C473.11 6.7847 473.664 7.43855 474.048 8.2847C474.448 9.11547 474.648 10.0924 474.648 11.2155V12.4386H466.71C466.741 13.8386 467.071 14.9078 467.702 15.6462C468.333 16.3693 469.217 16.7309 470.356 16.7309C471.094 16.7309 471.748 16.6616 472.317 16.5232C472.902 16.3693 473.502 16.1539 474.117 15.877V17.6539C473.517 17.9309 472.925 18.1309 472.341 18.2539C471.771 18.3924 471.079 18.4616 470.264 18.4616C469.156 18.4616 468.179 18.2232 467.333 17.7462C466.487 17.2693 465.825 16.5616 465.348 15.6232C464.871 14.6693 464.633 13.5078 464.633 12.1386C464.633 10.7847 464.848 9.62317 465.279 8.65394C465.71 7.6847 466.31 6.93855 467.079 6.41547C467.864 5.8924 468.771 5.63086 469.802 5.63086ZM469.802 7.2924C468.91 7.2924 468.202 7.60778 467.679 8.23855C467.156 8.85394 466.848 9.71547 466.756 10.8232H472.571C472.571 10.1155 472.471 9.50009 472.271 8.97701C472.071 8.45394 471.764 8.04624 471.348 7.75394C470.948 7.44624 470.433 7.2924 469.802 7.2924Z" fill="white"/>
<path d="M462.483 14.8155C462.483 15.6155 462.29 16.2847 461.906 16.8232C461.537 17.3616 461.006 17.7693 460.314 18.0462C459.621 18.3232 458.79 18.4616 457.821 18.4616C457.006 18.4616 456.298 18.3924 455.698 18.2539C455.114 18.1155 454.598 17.9232 454.152 17.677V15.8309C454.629 16.077 455.198 16.3078 455.86 16.5232C456.521 16.7232 457.19 16.8232 457.867 16.8232C458.806 16.8232 459.483 16.6616 459.898 16.3386C460.329 16.0001 460.544 15.5539 460.544 15.0001C460.544 14.6924 460.46 14.4155 460.29 14.1693C460.137 13.9232 459.852 13.677 459.437 13.4309C459.037 13.1847 458.452 12.9078 457.683 12.6001C456.944 12.2924 456.306 11.9847 455.767 11.677C455.244 11.3693 454.837 11.0001 454.544 10.5693C454.267 10.1386 454.129 9.58471 454.129 8.90778C454.129 7.86163 454.529 7.05394 455.329 6.48471C456.144 5.91547 457.206 5.63086 458.514 5.63086C459.221 5.63086 459.883 5.70778 460.498 5.86163C461.114 6.00009 461.698 6.20009 462.252 6.46163L461.583 8.07701C461.26 7.92317 460.921 7.7924 460.567 7.68471C460.214 7.56163 459.852 7.46932 459.483 7.40778C459.129 7.33086 458.767 7.2924 458.398 7.2924C457.644 7.2924 457.067 7.43086 456.667 7.70778C456.267 7.96932 456.067 8.33086 456.067 8.7924C456.067 9.13086 456.16 9.42317 456.344 9.66932C456.529 9.91547 456.829 10.1539 457.244 10.3847C457.675 10.6001 458.26 10.8539 458.998 11.1462C459.737 11.4386 460.367 11.7386 460.89 12.0462C461.414 12.3539 461.806 12.7309 462.067 13.177C462.344 13.6078 462.483 14.1539 462.483 14.8155Z" fill="white"/>
<path d="M447.087 5.63086C448.087 5.63086 448.949 5.86163 449.672 6.32317C450.395 6.7847 450.949 7.43855 451.333 8.2847C451.733 9.11547 451.933 10.0924 451.933 11.2155V12.4386H443.995C444.026 13.8386 444.356 14.9078 444.987 15.6462C445.618 16.3693 446.503 16.7309 447.641 16.7309C448.38 16.7309 449.033 16.6616 449.603 16.5232C450.187 16.3693 450.787 16.1539 451.403 15.877V17.6539C450.803 17.9309 450.21 18.1309 449.626 18.2539C449.056 18.3924 448.364 18.4616 447.549 18.4616C446.441 18.4616 445.464 18.2232 444.618 17.7462C443.772 17.2693 443.11 16.5616 442.633 15.6232C442.156 14.6693 441.918 13.5078 441.918 12.1386C441.918 10.7847 442.133 9.62317 442.564 8.65394C442.995 7.6847 443.595 6.93855 444.364 6.41547C445.149 5.8924 446.056 5.63086 447.087 5.63086ZM447.087 7.2924C446.195 7.2924 445.487 7.60778 444.964 8.23855C444.441 8.85394 444.133 9.71547 444.041 10.8232H449.856C449.856 10.1155 449.756 9.50009 449.556 8.97701C449.356 8.45394 449.049 8.04624 448.633 7.75394C448.233 7.44624 447.718 7.2924 447.087 7.2924Z" fill="white"/>
<path d="M439.492 5.63086C439.707 5.63086 439.938 5.64624 440.184 5.67701C440.43 5.6924 440.646 5.72317 440.83 5.76932L440.6 7.63855C440.415 7.5924 440.207 7.55394 439.977 7.52317C439.761 7.4924 439.553 7.47701 439.353 7.47701C438.907 7.47701 438.484 7.57701 438.084 7.77701C437.684 7.97701 437.323 8.26163 437 8.63086C436.692 8.98471 436.446 9.41548 436.261 9.92317C436.077 10.4309 435.984 11.0001 435.984 11.6309V18.2309H433.977V5.86163H435.615L435.846 8.12317H435.938C436.184 7.66163 436.477 7.24624 436.815 6.87701C437.169 6.4924 437.569 6.1924 438.015 5.97701C438.461 5.74624 438.953 5.63086 439.492 5.63086Z" fill="white"/>
<path d="M425.549 14.8155C425.549 15.6155 425.357 16.2847 424.972 16.8232C424.603 17.3616 424.072 17.7693 423.38 18.0462C422.688 18.3232 421.857 18.4616 420.888 18.4616C420.072 18.4616 419.365 18.3924 418.765 18.2539C418.18 18.1155 417.665 17.9232 417.218 17.677V15.8309C417.695 16.077 418.265 16.3078 418.926 16.5232C419.588 16.7232 420.257 16.8232 420.934 16.8232C421.872 16.8232 422.549 16.6616 422.965 16.3386C423.395 16.0001 423.611 15.5539 423.611 15.0001C423.611 14.6924 423.526 14.4155 423.357 14.1693C423.203 13.9232 422.918 13.677 422.503 13.4309C422.103 13.1847 421.518 12.9078 420.749 12.6001C420.011 12.2924 419.372 11.9847 418.834 11.677C418.311 11.3693 417.903 11.0001 417.611 10.5693C417.334 10.1386 417.195 9.58471 417.195 8.90778C417.195 7.86163 417.595 7.05394 418.395 6.48471C419.211 5.91547 420.272 5.63086 421.58 5.63086C422.288 5.63086 422.949 5.70778 423.565 5.86163C424.18 6.00009 424.765 6.20009 425.318 6.46163L424.649 8.07701C424.326 7.92317 423.988 7.7924 423.634 7.68471C423.28 7.56163 422.918 7.46932 422.549 7.40778C422.195 7.33086 421.834 7.2924 421.465 7.2924C420.711 7.2924 420.134 7.43086 419.734 7.70778C419.334 7.96932 419.134 8.33086 419.134 8.7924C419.134 9.13086 419.226 9.42317 419.411 9.66932C419.595 9.91547 419.895 10.1539 420.311 10.3847C420.741 10.6001 421.326 10.8539 422.065 11.1462C422.803 11.4386 423.434 11.7386 423.957 12.0462C424.48 12.3539 424.872 12.7309 425.134 13.177C425.411 13.6078 425.549 14.1539 425.549 14.8155Z" fill="white"/>
<path d="M413.946 16.7994C414.238 16.7994 414.538 16.7763 414.846 16.7302C415.154 16.6686 415.408 16.6071 415.608 16.5455V18.0917C415.392 18.1994 415.085 18.284 414.685 18.3455C414.3 18.4225 413.931 18.4609 413.577 18.4609C412.962 18.4609 412.392 18.3532 411.869 18.1378C411.346 17.9071 410.923 17.5148 410.6 16.9609C410.292 16.4071 410.138 15.6302 410.138 14.6302V7.43015H408.5V6.46092L410.185 5.65323L410.946 3.02246H412.146V5.86092H415.515V7.43015H412.146V14.584C412.146 15.3378 412.315 15.8994 412.654 16.2686C412.992 16.6225 413.423 16.7994 413.946 16.7994Z" fill="white"/>
<path d="M398.484 5.83854C398.484 6.13085 398.469 6.43084 398.438 6.73854C398.423 7.04623 398.4 7.32315 398.369 7.56931H398.507C398.753 7.13854 399.061 6.78469 399.43 6.50777C399.815 6.23085 400.23 6.02315 400.677 5.88469C401.138 5.73085 401.615 5.65392 402.107 5.65392C403.046 5.65392 403.83 5.81546 404.461 6.13854C405.092 6.44623 405.569 6.93085 405.892 7.59238C406.215 8.25392 406.377 9.11546 406.377 10.177V18.2308H404.369V10.3155C404.369 9.31546 404.161 8.56931 403.746 8.077C403.33 7.58469 402.692 7.33854 401.83 7.33854C400.984 7.33854 400.315 7.51546 399.823 7.86931C399.33 8.20777 398.984 8.71546 398.784 9.39238C398.584 10.0539 398.484 10.8693 398.484 11.8385V18.2308H396.477V0.692383H398.484V5.83854Z" fill="white"/>
<path d="M387.223 5.63086C387.992 5.63086 388.676 5.78471 389.276 6.0924C389.892 6.40009 390.415 6.86932 390.846 7.50009H390.961L391.215 5.86163H392.83V18.4386C392.83 19.6078 392.638 20.5847 392.253 21.3693C391.884 22.1693 391.307 22.7693 390.523 23.1693C389.753 23.5693 388.769 23.7693 387.569 23.7693C386.723 23.7693 385.953 23.7001 385.261 23.5616C384.569 23.4386 383.938 23.2462 383.369 22.9847V21.1155C383.753 21.3155 384.169 21.4847 384.615 21.6232C385.076 21.777 385.561 21.8924 386.069 21.9693C386.592 22.0462 387.13 22.0847 387.684 22.0847C388.669 22.0847 389.438 21.7693 389.992 21.1386C390.561 20.5232 390.846 19.677 390.846 18.6001V18.1155C390.846 17.9309 390.853 17.6693 390.869 17.3309C390.884 16.977 390.9 16.7309 390.915 16.5924H390.823C390.423 17.2232 389.923 17.6924 389.323 18.0001C388.723 18.3078 388.03 18.4616 387.246 18.4616C385.753 18.4616 384.584 17.9001 383.738 16.777C382.892 15.6539 382.469 14.0847 382.469 12.0693C382.469 10.7462 382.653 9.60778 383.023 8.65394C383.407 7.6847 383.953 6.93855 384.661 6.41547C385.384 5.8924 386.238 5.63086 387.223 5.63086ZM387.546 7.33855C386.915 7.33855 386.369 7.52317 385.907 7.8924C385.461 8.26163 385.123 8.80009 384.892 9.50778C384.661 10.2155 384.546 11.077 384.546 12.0924C384.546 13.6155 384.8 14.7847 385.307 15.6001C385.83 16.4001 386.592 16.8001 387.592 16.8001C388.161 16.8001 388.653 16.7232 389.069 16.5693C389.484 16.4001 389.823 16.1462 390.084 15.8078C390.346 15.4539 390.538 15.0078 390.661 14.4693C390.8 13.9309 390.869 13.2924 390.869 12.5539V12.0693C390.869 10.9462 390.746 10.0386 390.5 9.34624C390.269 8.65394 389.907 8.14624 389.415 7.82317C388.938 7.50009 388.315 7.33855 387.546 7.33855Z" fill="white"/>
<path d="M379.466 5.86112V18.2304H377.458V5.86112H379.466ZM378.474 1.22266C378.782 1.22266 379.051 1.33035 379.281 1.54573C379.512 1.74573 379.628 2.06881 379.628 2.51496C379.628 2.94573 379.512 3.26881 379.281 3.48419C379.051 3.69958 378.782 3.80727 378.474 3.80727C378.151 3.80727 377.874 3.69958 377.643 3.48419C377.412 3.26881 377.297 2.94573 377.297 2.51496C377.297 2.06881 377.412 1.74573 377.643 1.54573C377.874 1.33035 378.151 1.22266 378.474 1.22266Z" fill="white"/>
<path d="M373.933 5.63086C374.149 5.63086 374.379 5.64624 374.626 5.67701C374.872 5.6924 375.087 5.72317 375.272 5.76932L375.041 7.63855C374.856 7.5924 374.649 7.55394 374.418 7.52317C374.203 7.4924 373.995 7.47701 373.795 7.47701C373.349 7.47701 372.926 7.57701 372.526 7.77701C372.126 7.97701 371.764 8.26163 371.441 8.63086C371.133 8.98471 370.887 9.41548 370.703 9.92317C370.518 10.4309 370.426 11.0001 370.426 11.6309V18.2309H368.418V5.86163H370.056L370.287 8.12317H370.379C370.626 7.66163 370.918 7.24624 371.256 6.87701C371.61 6.4924 372.01 6.1924 372.456 5.97701C372.903 5.74624 373.395 5.63086 373.933 5.63086Z" fill="white"/>
<path d="M359.137 18.2308H357.129V0.692383H359.137V18.2308Z" fill="white"/>
<path d="M353.48 18.2308H351.473V0.692383H353.48V18.2308Z" fill="white"/>
<path d="M347.515 18.2307L345.715 13.1307H339.6L337.823 18.2307H335.723L341.723 1.68457H343.661L349.638 18.2307H347.515ZM343.407 6.29995C343.376 6.17688 343.307 5.9538 343.2 5.63072C343.107 5.30765 343.007 4.97688 342.9 4.63842C342.807 4.28457 342.73 4.01534 342.669 3.83072C342.592 4.13842 342.507 4.4538 342.415 4.77688C342.338 5.08457 342.261 5.36919 342.184 5.63072C342.107 5.89226 342.038 6.11534 341.977 6.29995L340.269 11.2846H345.115L343.407 6.29995Z" fill="white"/>
<path d="M325.773 16.9846C325.773 16.4154 325.904 16.0154 326.166 15.7846C326.427 15.5539 326.75 15.4385 327.135 15.4385C327.52 15.4385 327.85 15.5539 328.127 15.7846C328.404 16.0154 328.543 16.4154 328.543 16.9846C328.543 17.5385 328.404 17.9385 328.127 18.1846C327.85 18.4308 327.52 18.5539 327.135 18.5539C326.75 18.5539 326.427 18.4308 326.166 18.1846C325.904 17.9385 325.773 17.5385 325.773 16.9846Z" fill="white"/>
<path d="M313.953 5.86133H316.122L318.592 12.8998C318.745 13.3152 318.884 13.7152 319.007 14.0998C319.13 14.4844 319.238 14.8613 319.33 15.2306C319.422 15.5844 319.492 15.9306 319.538 16.269H319.607C319.699 15.8844 319.83 15.3844 319.999 14.769C320.184 14.1383 320.376 13.5075 320.576 12.8767L322.907 5.86133H325.099L320.092 19.9383C319.815 20.7075 319.484 21.3767 319.099 21.9459C318.73 22.5306 318.276 22.9767 317.738 23.2844C317.199 23.6075 316.553 23.769 315.799 23.769C315.461 23.769 315.153 23.7459 314.876 23.6998C314.615 23.669 314.392 23.6306 314.207 23.5844V21.969C314.361 21.9998 314.553 22.0306 314.784 22.0613C315.015 22.0921 315.253 22.1075 315.499 22.1075C315.945 22.1075 316.33 22.0152 316.653 21.8306C316.976 21.6613 317.253 21.4075 317.484 21.069C317.715 20.7459 317.907 20.3613 318.061 19.9152L318.638 18.2767L313.953 5.86133Z" fill="white"/>
<path d="M309.96 18.4616C308.914 18.4616 307.99 18.2386 307.19 17.7924C306.39 17.3462 305.76 16.6539 305.298 15.7155C304.852 14.777 304.629 13.577 304.629 12.1155C304.629 10.5924 304.867 9.35394 305.344 8.40009C305.821 7.44624 306.467 6.74624 307.283 6.30009C308.114 5.85394 309.052 5.63086 310.098 5.63086C310.698 5.63086 311.275 5.70009 311.829 5.83855C312.398 5.96163 312.86 6.11547 313.214 6.30009L312.59 7.9847C312.237 7.84624 311.821 7.71547 311.344 7.5924C310.883 7.46932 310.452 7.40778 310.052 7.40778C309.298 7.40778 308.675 7.58471 308.183 7.93855C307.69 8.2924 307.321 8.81547 307.075 9.50778C306.829 10.2001 306.706 11.0616 306.706 12.0924C306.706 13.077 306.829 13.9155 307.075 14.6078C307.321 15.3001 307.683 15.8232 308.16 16.177C308.652 16.5309 309.252 16.7078 309.96 16.7078C310.59 16.7078 311.152 16.6386 311.644 16.5001C312.137 16.3616 312.59 16.1924 313.006 15.9924V17.7924C312.606 18.0078 312.167 18.1693 311.69 18.277C311.214 18.4001 310.637 18.4616 309.96 18.4616Z" fill="white"/>
<path d="M297.474 5.63086C298.858 5.63086 299.905 5.9924 300.612 6.71547C301.335 7.42317 301.697 8.57701 301.697 10.177V18.2309H299.689V10.3155C299.689 9.31547 299.481 8.56932 299.066 8.07701C298.651 7.5847 298.012 7.33855 297.151 7.33855C295.889 7.33855 295.012 7.72317 294.52 8.4924C294.043 9.26163 293.805 10.3693 293.805 11.8155V18.2309H291.797V5.86163H293.412L293.712 7.54624H293.828C294.074 7.11547 294.389 6.76163 294.774 6.48471C295.158 6.1924 295.581 5.97701 296.043 5.83855C296.505 5.70009 296.981 5.63086 297.474 5.63086Z" fill="white"/>
<path d="M284.036 5.63086C285.036 5.63086 285.898 5.86163 286.621 6.32317C287.344 6.7847 287.898 7.43855 288.283 8.2847C288.683 9.11547 288.883 10.0924 288.883 11.2155V12.4386H280.944C280.975 13.8386 281.306 14.9078 281.936 15.6462C282.567 16.3693 283.452 16.7309 284.59 16.7309C285.329 16.7309 285.983 16.6616 286.552 16.5232C287.136 16.3693 287.736 16.1539 288.352 15.877V17.6539C287.752 17.9309 287.16 18.1309 286.575 18.2539C286.006 18.3924 285.313 18.4616 284.498 18.4616C283.39 18.4616 282.413 18.2232 281.567 17.7462C280.721 17.2693 280.06 16.5616 279.583 15.6232C279.106 14.6693 278.867 13.5078 278.867 12.1386C278.867 10.7847 279.083 9.62317 279.513 8.65394C279.944 7.6847 280.544 6.93855 281.313 6.41547C282.098 5.8924 283.006 5.63086 284.036 5.63086ZM284.036 7.2924C283.144 7.2924 282.436 7.60778 281.913 8.23855C281.39 8.85394 281.083 9.71547 280.99 10.8232H286.806C286.806 10.1155 286.706 9.50009 286.506 8.97701C286.306 8.45394 285.998 8.04624 285.583 7.75394C285.183 7.44624 284.667 7.2924 284.036 7.2924Z" fill="white"/>
<path d="M270.258 5.63086C271.027 5.63086 271.712 5.78471 272.312 6.0924C272.927 6.40009 273.45 6.86932 273.881 7.50009H273.996L274.25 5.86163H275.865V18.4386C275.865 19.6078 275.673 20.5847 275.289 21.3693C274.919 22.1693 274.342 22.7693 273.558 23.1693C272.789 23.5693 271.804 23.7693 270.604 23.7693C269.758 23.7693 268.989 23.7001 268.296 23.5616C267.604 23.4386 266.973 23.2462 266.404 22.9847V21.1155C266.789 21.3155 267.204 21.4847 267.65 21.6232C268.112 21.777 268.596 21.8924 269.104 21.9693C269.627 22.0462 270.165 22.0847 270.719 22.0847C271.704 22.0847 272.473 21.7693 273.027 21.1386C273.596 20.5232 273.881 19.677 273.881 18.6001V18.1155C273.881 17.9309 273.889 17.6693 273.904 17.3309C273.919 16.977 273.935 16.7309 273.95 16.5924H273.858C273.458 17.2232 272.958 17.6924 272.358 18.0001C271.758 18.3078 271.065 18.4616 270.281 18.4616C268.789 18.4616 267.619 17.9001 266.773 16.777C265.927 15.6539 265.504 14.0847 265.504 12.0693C265.504 10.7462 265.689 9.60778 266.058 8.65394C266.442 7.6847 266.989 6.93855 267.696 6.41547C268.419 5.8924 269.273 5.63086 270.258 5.63086ZM270.581 7.33855C269.95 7.33855 269.404 7.52317 268.942 7.8924C268.496 8.26163 268.158 8.80009 267.927 9.50778C267.696 10.2155 267.581 11.077 267.581 12.0924C267.581 13.6155 267.835 14.7847 268.342 15.6001C268.865 16.4001 269.627 16.8001 270.627 16.8001C271.196 16.8001 271.689 16.7232 272.104 16.5693C272.519 16.4001 272.858 16.1462 273.119 15.8078C273.381 15.4539 273.573 15.0078 273.696 14.4693C273.835 13.9309 273.904 13.2924 273.904 12.5539V12.0693C273.904 10.9462 273.781 10.0386 273.535 9.34624C273.304 8.65394 272.942 8.14624 272.45 7.82317C271.973 7.50009 271.35 7.33855 270.581 7.33855Z" fill="white"/>
<path d="M262.195 18.2307L260.395 13.1307H254.279L252.502 18.2307H250.402L256.402 1.68457H258.341L264.318 18.2307H262.195ZM258.087 6.29995C258.056 6.17688 257.987 5.9538 257.879 5.63072C257.787 5.30765 257.687 4.97688 257.579 4.63842C257.487 4.28457 257.41 4.01534 257.349 3.83072C257.272 4.13842 257.187 4.4538 257.095 4.77688C257.018 5.08457 256.941 5.36919 256.864 5.63072C256.787 5.89226 256.718 6.11534 256.656 6.29995L254.948 11.2846H259.795L258.087 6.29995Z" fill="white"/>
<path d="M242.941 18.2308H240.934V0.692383H242.941V18.2308Z" fill="white"/>
<path d="M233.128 5.65332C234.544 5.65332 235.598 5.98409 236.29 6.64563C236.998 7.30717 237.351 8.36101 237.351 9.80717V18.2302H235.898L235.505 16.4764H235.413C235.075 16.9226 234.728 17.2995 234.375 17.6072C234.036 17.8995 233.636 18.1149 233.175 18.2533C232.728 18.3918 232.175 18.461 231.513 18.461C230.821 18.461 230.198 18.3302 229.644 18.0687C229.09 17.8072 228.651 17.4072 228.328 16.8687C228.005 16.3149 227.844 15.6226 227.844 14.7918C227.844 13.561 228.298 12.6149 229.205 11.9533C230.113 11.2764 231.513 10.9072 233.405 10.8456L235.367 10.7764V10.0379C235.367 9.00717 235.159 8.29178 234.744 7.89178C234.344 7.49178 233.767 7.29178 233.013 7.29178C232.413 7.29178 231.836 7.39178 231.282 7.59178C230.744 7.7764 230.228 7.99178 229.736 8.23794L229.113 6.71486C229.636 6.42255 230.244 6.1764 230.936 5.9764C231.628 5.76101 232.359 5.65332 233.128 5.65332ZM233.682 12.2533C232.267 12.3149 231.282 12.561 230.728 12.9918C230.19 13.4226 229.921 14.0302 229.921 14.8149C229.921 15.5072 230.113 16.0149 230.498 16.3379C230.882 16.661 231.382 16.8226 231.998 16.8226C232.951 16.8226 233.751 16.5379 234.398 15.9687C235.044 15.3841 235.367 14.4918 235.367 13.2918V12.1841L233.682 12.2533Z" fill="white"/>
<path d="M225.025 5.86112V18.2304H223.017V5.86112H225.025ZM224.032 1.22266C224.34 1.22266 224.609 1.33035 224.84 1.54573C225.071 1.74573 225.186 2.06881 225.186 2.51496C225.186 2.94573 225.071 3.26881 224.84 3.48419C224.609 3.69958 224.34 3.80727 224.032 3.80727C223.709 3.80727 223.432 3.69958 223.202 3.48419C222.971 3.26881 222.855 2.94573 222.855 2.51496C222.855 2.06881 222.971 1.74573 223.202 1.54573C223.432 1.33035 223.709 1.22266 224.032 1.22266Z" fill="white"/>
<path d="M217.198 18.4616C216.152 18.4616 215.229 18.2386 214.429 17.7924C213.629 17.3462 212.998 16.6539 212.536 15.7155C212.09 14.777 211.867 13.577 211.867 12.1155C211.867 10.5924 212.106 9.35394 212.583 8.40009C213.059 7.44624 213.706 6.74624 214.521 6.30009C215.352 5.85394 216.29 5.63086 217.336 5.63086C217.936 5.63086 218.513 5.70009 219.067 5.83855C219.636 5.96163 220.098 6.11547 220.452 6.30009L219.829 7.9847C219.475 7.84624 219.059 7.71547 218.583 7.5924C218.121 7.46932 217.69 7.40778 217.29 7.40778C216.536 7.40778 215.913 7.58471 215.421 7.93855C214.929 8.2924 214.559 8.81547 214.313 9.50778C214.067 10.2001 213.944 11.0616 213.944 12.0924C213.944 13.077 214.067 13.9155 214.313 14.6078C214.559 15.3001 214.921 15.8232 215.398 16.177C215.89 16.5309 216.49 16.7078 217.198 16.7078C217.829 16.7078 218.39 16.6386 218.883 16.5001C219.375 16.3616 219.829 16.1924 220.244 15.9924V17.7924C219.844 18.0078 219.406 18.1693 218.929 18.277C218.452 18.4001 217.875 18.4616 217.198 18.4616Z" fill="white"/>
<path d="M204.716 5.63086C206.101 5.63086 207.147 5.9924 207.854 6.71547C208.578 7.42317 208.939 8.57701 208.939 10.177V18.2309H206.931V10.3155C206.931 9.31547 206.724 8.56932 206.308 8.07701C205.893 7.5847 205.254 7.33855 204.393 7.33855C203.131 7.33855 202.254 7.72317 201.762 8.4924C201.285 9.26163 201.047 10.3693 201.047 11.8155V18.2309H199.039V5.86163H200.654L200.954 7.54624H201.07C201.316 7.11547 201.631 6.76163 202.016 6.48471C202.401 6.1924 202.824 5.97701 203.285 5.83855C203.747 5.70009 204.224 5.63086 204.716 5.63086Z" fill="white"/>
<path d="M191.234 5.65332C192.649 5.65332 193.703 5.98409 194.395 6.64563C195.103 7.30717 195.457 8.36101 195.457 9.80717V18.2302H194.003L193.611 16.4764H193.518C193.18 16.9226 192.834 17.2995 192.48 17.6072C192.142 17.8995 191.742 18.1149 191.28 18.2533C190.834 18.3918 190.28 18.461 189.618 18.461C188.926 18.461 188.303 18.3302 187.749 18.0687C187.195 17.8072 186.757 17.4072 186.434 16.8687C186.111 16.3149 185.949 15.6226 185.949 14.7918C185.949 13.561 186.403 12.6149 187.311 11.9533C188.218 11.2764 189.618 10.9072 191.511 10.8456L193.472 10.7764V10.0379C193.472 9.00717 193.265 8.29178 192.849 7.89178C192.449 7.49178 191.872 7.29178 191.118 7.29178C190.518 7.29178 189.942 7.39178 189.388 7.59178C188.849 7.7764 188.334 7.99178 187.842 8.23794L187.218 6.71486C187.742 6.42255 188.349 6.1764 189.042 5.9764C189.734 5.76101 190.465 5.65332 191.234 5.65332ZM191.788 12.2533C190.372 12.3149 189.388 12.561 188.834 12.9918C188.295 13.4226 188.026 14.0302 188.026 14.8149C188.026 15.5072 188.218 16.0149 188.603 16.3379C188.988 16.661 189.488 16.8226 190.103 16.8226C191.057 16.8226 191.857 16.5379 192.503 15.9687C193.149 15.3841 193.472 14.4918 193.472 13.2918V12.1841L191.788 12.2533Z" fill="white"/>
<path d="M178.978 5.63086C180.362 5.63086 181.408 5.9924 182.116 6.71547C182.839 7.42317 183.201 8.57701 183.201 10.177V18.2309H181.193V10.3155C181.193 9.31547 180.985 8.56932 180.57 8.07701C180.155 7.5847 179.516 7.33855 178.655 7.33855C177.393 7.33855 176.516 7.72317 176.024 8.4924C175.547 9.26163 175.308 10.3693 175.308 11.8155V18.2309H173.301V5.86163H174.916L175.216 7.54624H175.332C175.578 7.11547 175.893 6.76163 176.278 6.48471C176.662 6.1924 177.085 5.97701 177.547 5.83855C178.008 5.70009 178.485 5.63086 178.978 5.63086Z" fill="white"/>
<path d="M169.654 5.86112V18.2304H167.646V5.86112H169.654ZM168.661 1.22266C168.969 1.22266 169.238 1.33035 169.469 1.54573C169.7 1.74573 169.815 2.06881 169.815 2.51496C169.815 2.94573 169.7 3.26881 169.469 3.48419C169.238 3.69958 168.969 3.80727 168.661 3.80727C168.338 3.80727 168.061 3.69958 167.831 3.48419C167.6 3.26881 167.484 2.94573 167.484 2.51496C167.484 2.06881 167.6 1.74573 167.831 1.54573C168.061 1.33035 168.338 1.22266 168.661 1.22266Z" fill="white"/>
<path d="M158.62 18.2308H156.566V1.75391H165.243V3.57698H158.62V9.41545H164.828V11.2385H158.62V18.2308Z" fill="white"/>
<path d="M134.607 6.34554C133.761 6.34554 133.099 6.66861 132.622 7.31477C132.145 7.96092 131.907 8.85323 131.907 9.99169C131.907 10.7763 131.992 11.4455 132.161 11.9994C132.345 12.5378 132.638 12.9532 133.038 13.2455C133.438 13.5225 133.953 13.6609 134.584 13.6609C134.922 13.6609 135.299 13.6148 135.715 13.5225C136.13 13.4148 136.515 13.284 136.869 13.1302V14.6071C136.515 14.7609 136.153 14.8917 135.784 14.9994C135.43 15.1071 134.999 15.1609 134.492 15.1609C133.061 15.1609 131.992 14.6917 131.284 13.7532C130.576 12.7994 130.222 11.5455 130.222 9.99169C130.222 8.99169 130.392 8.10708 130.73 7.33785C131.069 6.55323 131.561 5.94554 132.207 5.51477C132.853 5.06862 133.646 4.84554 134.584 4.84554C135.03 4.84554 135.484 4.90708 135.945 5.03015C136.422 5.15323 136.853 5.32246 137.238 5.53785L136.615 6.94554C136.261 6.74554 135.915 6.59938 135.576 6.50708C135.238 6.39938 134.915 6.34554 134.607 6.34554ZM126.207 9.99169C126.207 8.82246 126.407 7.73015 126.807 6.71477C127.222 5.684 127.792 4.784 128.515 4.01477C129.253 3.23015 130.099 2.62246 131.053 2.19169C132.022 1.74554 133.061 1.52246 134.169 1.52246C135.276 1.52246 136.307 1.74554 137.261 2.19169C138.23 2.62246 139.076 3.23015 139.799 4.01477C140.538 4.784 141.107 5.684 141.507 6.71477C141.922 7.73015 142.13 8.82246 142.13 9.99169C142.13 11.1609 141.922 12.2609 141.507 13.2917C141.107 14.3071 140.538 15.2071 139.799 15.9917C139.076 16.7609 138.23 17.3686 137.261 17.8148C136.307 18.2455 135.276 18.4609 134.169 18.4609C133.061 18.4609 132.022 18.2455 131.053 17.8148C130.099 17.3686 129.253 16.7609 128.515 15.9917C127.792 15.2071 127.222 14.3071 126.807 13.2917C126.407 12.2609 126.207 11.1609 126.207 9.99169ZM127.361 9.99169C127.361 10.9917 127.538 11.9302 127.892 12.8071C128.245 13.684 128.73 14.4532 129.345 15.1148C129.976 15.7763 130.699 16.2994 131.515 16.684C132.345 17.0532 133.23 17.2378 134.169 17.2378C135.107 17.2378 135.984 17.0532 136.799 16.684C137.63 16.2994 138.353 15.7763 138.969 15.1148C139.599 14.4532 140.092 13.684 140.445 12.8071C140.799 11.9302 140.976 10.9917 140.976 9.99169C140.976 8.99169 140.799 8.05323 140.445 7.17631C140.092 6.29938 139.599 5.53015 138.969 4.86861C138.353 4.20708 137.63 3.69169 136.799 3.32246C135.984 2.93785 135.107 2.74554 134.169 2.74554C133.23 2.74554 132.345 2.93785 131.515 3.32246C130.699 3.69169 129.976 4.20708 129.345 4.86861C128.73 5.53015 128.245 6.29938 127.892 7.17631C127.538 8.05323 127.361 8.99169 127.361 9.99169Z" fill="white"/>
<path d="M114.494 18.2308H112.441V3.57698H107.641V1.75391H119.248V3.57698H114.494V18.2308Z" fill="white"/>
<path d="M105.283 18.2308H103.229V10.5462H95.4288V18.2308H93.375V1.75391H95.4288V8.72314H103.229V1.75391H105.283V18.2308Z" fill="white"/>
<path d="M84.2433 9.53015H89.6664V17.6071C88.8356 17.8994 87.9894 18.1148 87.1279 18.2532C86.2817 18.3917 85.3125 18.4609 84.2202 18.4609C82.6202 18.4609 81.2663 18.1225 80.1587 17.4455C79.0663 16.7532 78.2356 15.7763 77.6663 14.5148C77.0971 13.2378 76.8125 11.7302 76.8125 9.99169C76.8125 8.26862 77.1279 6.77631 77.7587 5.51477C78.3894 4.25323 79.3048 3.27631 80.5048 2.584C81.7048 1.87631 83.151 1.52246 84.8433 1.52246C85.7048 1.52246 86.5202 1.60708 87.2894 1.77631C88.074 1.94554 88.7971 2.184 89.4587 2.49169L88.6971 4.29169C88.1587 4.03015 87.5433 3.80708 86.851 3.62246C86.174 3.43785 85.474 3.34554 84.751 3.34554C83.5356 3.34554 82.4971 3.61477 81.6356 4.15323C80.774 4.69169 80.1125 5.46092 79.651 6.46092C79.1894 7.44554 78.9587 8.62246 78.9587 9.99169C78.9587 11.2994 79.151 12.4609 79.5356 13.4763C79.9202 14.4763 80.5279 15.2609 81.3587 15.8302C82.2048 16.384 83.3048 16.6609 84.6587 16.6609C85.1048 16.6609 85.4971 16.6455 85.8356 16.6148C86.1894 16.5686 86.5125 16.5148 86.8048 16.4532C87.0971 16.3917 87.3663 16.3302 87.6125 16.2686V11.3763H84.2433V9.53015Z" fill="white"/>
<path d="M74.6141 18.2308H68.9141V17.0308L70.7371 16.5924V3.41545L68.9141 2.95391V1.75391H74.6141V2.95391L72.791 3.41545V16.5924L74.6141 17.0308V18.2308Z" fill="white"/>
<path d="M60.8861 1.75391C62.1784 1.75391 63.2399 1.93083 64.0707 2.28468C64.9168 2.62314 65.5399 3.13852 65.9399 3.83083C66.3553 4.52314 66.563 5.39237 66.563 6.43852C66.563 7.31545 66.4091 8.04621 66.1014 8.63083C65.8091 9.21545 65.4245 9.68468 64.9476 10.0385C64.4861 10.377 63.9937 10.6462 63.4707 10.8462L67.763 18.2308H65.363L61.6245 11.4231H58.6476V18.2308H56.5938V1.75391H60.8861ZM60.7707 3.55391H58.6476V9.66929H60.863C61.6938 9.66929 62.3707 9.55391 62.8938 9.32314C63.4322 9.07698 63.8245 8.72314 64.0707 8.2616C64.3168 7.80006 64.4399 7.22314 64.4399 6.53083C64.4399 5.80775 64.3091 5.23083 64.0476 4.80006C63.7861 4.36929 63.3784 4.05391 62.8245 3.85391C62.2861 3.65391 61.6014 3.55391 60.7707 3.55391Z" fill="white"/>
<path d="M48.3057 9.85391L52.2749 1.75391H54.4903L49.3442 11.8385V18.2308H47.2903V11.9308L42.1211 1.75391H44.3596L48.3057 9.85391Z" fill="white"/>
<path d="M35.1929 1.75391C37.2237 1.75391 38.7006 2.17698 39.6237 3.02314C40.5468 3.86929 41.0083 5.0616 41.0083 6.60006C41.0083 7.27698 40.9006 7.93083 40.6852 8.5616C40.4852 9.17698 40.1468 9.73083 39.6698 10.2231C39.1929 10.7154 38.5544 11.1078 37.7544 11.4001C36.9698 11.677 36.0006 11.8154 34.8468 11.8154H33.0929V18.2308H31.0391V1.75391H35.1929ZM35.0314 3.53083H33.0929V10.0385H34.616C35.5698 10.0385 36.3621 9.93083 36.9929 9.71545C37.6237 9.48468 38.0929 9.12314 38.4006 8.63083C38.7237 8.13852 38.8852 7.49237 38.8852 6.69237C38.8852 5.63083 38.5698 4.83852 37.9391 4.31544C37.3237 3.79237 36.3544 3.53083 35.0314 3.53083Z" fill="white"/>
<path d="M27.6159 9.96923C27.6159 11.2462 27.4621 12.4077 27.1544 13.4538C26.8467 14.4846 26.3928 15.3769 25.7928 16.1308C25.1928 16.8846 24.4467 17.4615 23.5544 17.8615C22.6621 18.2615 21.6313 18.4615 20.4621 18.4615C19.2467 18.4615 18.1852 18.2615 17.2775 17.8615C16.3852 17.4462 15.639 16.8692 15.039 16.1308C14.4544 15.3769 14.0159 14.4769 13.7236 13.4308C13.4313 12.3846 13.2852 11.2231 13.2852 9.94615C13.2852 8.25385 13.5467 6.77692 14.0698 5.51539C14.5928 4.25385 15.3852 3.26923 16.4467 2.56154C17.5236 1.85385 18.8698 1.5 20.4852 1.5C22.039 1.5 23.3467 1.85385 24.4082 2.56154C25.4698 3.25385 26.2698 4.23846 26.8082 5.51539C27.3467 6.77692 27.6159 8.26154 27.6159 9.96923ZM15.4544 9.96923C15.4544 11.3538 15.6313 12.5462 15.9852 13.5462C16.339 14.5462 16.8852 15.3154 17.6236 15.8538C18.3775 16.3923 19.3236 16.6615 20.4621 16.6615C21.6159 16.6615 22.5621 16.3923 23.3005 15.8538C24.039 15.3154 24.5775 14.5462 24.9159 13.5462C25.2698 12.5462 25.4467 11.3538 25.4467 9.96923C25.4467 7.89231 25.0467 6.26923 24.2467 5.1C23.4621 3.91538 22.2082 3.32308 20.4852 3.32308C19.3313 3.32308 18.3775 3.59231 17.6236 4.13077C16.8852 4.65385 16.339 5.41538 15.9852 6.41538C15.6313 7.4 15.4544 8.58462 15.4544 9.96923Z" fill="white"/>
<path d="M7.41941 3.34554C6.60403 3.34554 5.87326 3.49938 5.2271 3.80708C4.58095 4.09938 4.0271 4.53785 3.56557 5.12246C3.11941 5.69169 2.77326 6.39169 2.5271 7.22246C2.29633 8.03785 2.18095 8.96092 2.18095 9.99169C2.18095 11.3455 2.37326 12.5225 2.75787 13.5225C3.14249 14.5225 3.71941 15.2917 4.48864 15.8302C5.27326 16.3686 6.24249 16.6378 7.39633 16.6378C8.07326 16.6378 8.71172 16.5763 9.31172 16.4532C9.9271 16.3302 10.5348 16.1763 11.1348 15.9917V17.7917C10.5502 18.0225 9.95018 18.1917 9.3348 18.2994C8.71941 18.4071 7.98095 18.4609 7.11941 18.4609C5.5348 18.4609 4.21172 18.1148 3.15018 17.4225C2.10403 16.7302 1.31941 15.7455 0.796334 14.4686C0.273257 13.1917 0.0117188 11.6917 0.0117188 9.96862C0.0117188 8.72246 0.173257 7.584 0.496334 6.55323C0.819411 5.52246 1.29633 4.63015 1.9271 3.87631C2.55787 3.12246 3.3348 2.54554 4.25787 2.14554C5.18095 1.73015 6.24249 1.52246 7.44249 1.52246C8.2271 1.52246 8.98864 1.60708 9.7271 1.77631C10.4656 1.94554 11.1348 2.184 11.7348 2.49169L10.9271 4.24554C10.4502 4.01477 9.91172 3.80708 9.31172 3.62246C8.7271 3.43785 8.09633 3.34554 7.41941 3.34554Z" fill="white"/>
</svg>
