<svg width="40" height="53" viewBox="0 0 40 53" fill="none" xmlns="http://www.w3.org/2000/svg">
<path d="M3.95171 2.43403C0.4568 4.75128 -0.229763 11.9946 1.08972 17.8981C2.11733 22.4954 4.30209 28.6624 7.98615 34.4695C11.4518 39.9326 16.287 44.8311 19.9738 47.6653C24.7083 51.3045 31.4574 53.6177 34.9523 51.3005C36.7195 50.1287 39.345 46.9274 39.4648 46.353C39.4648 46.353 37.9252 43.926 37.5873 43.3934L32.4243 35.2547C32.0406 34.6499 29.6345 35.2027 28.4122 35.9105C26.7634 36.8656 25.2449 39.4282 25.2449 39.4282C24.1144 40.096 23.1674 39.4307 21.1889 38.4997C18.7573 37.3559 16.0233 33.8021 13.8474 30.5833C11.8601 27.2395 9.80096 23.2381 9.77115 20.5018C9.74662 18.2753 9.53859 17.1202 10.5961 16.3371C10.5961 16.3371 13.5041 15.9648 15.0295 14.8153C16.1601 13.963 17.6351 11.9425 17.2514 11.3376L12.0883 3.199C11.7505 2.66641 10.2108 0.239475 10.2108 0.239475C9.64886 0.117093 5.71893 1.26231 3.95171 2.43403Z" fill="#F19B11"/>
</svg>
