<svg width="516" height="180" viewBox="0 0 516 180" fill="none" xmlns="http://www.w3.org/2000/svg">
<path d="M7.36742 165.803C-57.5829 144.203 -48.6507 72.661 -20.1187 55.1156C37.321 19.7937 311.506 -5.23304 422.143 12.6232C532.779 30.4794 532.352 114.26 480.389 141.379C428.426 168.498 366.17 165.979 283.782 150.878C181.854 132.195 72.3178 187.404 7.36742 165.803Z" fill="#32A9B9"/>
<path d="M440.875 75.6001H446.355C446.155 77.0801 446.035 79.0401 446.035 81.6801C446.035 85.1601 446.355 89.9601 446.795 92.4001C447.475 96.5601 448.755 99.1201 450.035 99.1201C450.635 99.1201 451.195 98.5201 451.675 97.4001C452.635 95.2401 453.355 92.8401 453.795 90.1601C455.195 91.7601 455.835 92.3601 457.795 93.8001C455.715 101.6 453.395 104.84 449.995 104.84C447.315 104.84 445.155 102.88 443.555 99.0401C441.915 95.0401 441.195 89.2401 441.035 78.1601C440.995 76.7601 440.995 76.4801 440.875 75.6001ZM461.075 79.4001L465.275 77.4001C470.315 83.4401 473.115 90.1201 474.275 98.9201L469.315 100.8C469.075 97.0401 468.155 92.8801 466.755 89.2401C465.395 85.6001 463.475 82.3601 461.075 79.4001Z" fill="white"/>
<path d="M424.795 83.7199L424.755 87.1599C424.755 87.3199 424.795 87.6399 424.795 88.1199C425.675 89.9599 426.075 91.5999 426.075 93.7599C426.075 98.1199 423.995 101.88 420.115 104.56C418.435 105.72 416.595 106.56 412.875 107.84C411.755 105.36 411.355 104.76 410.035 103.32C413.315 102.68 414.955 102.12 416.835 101C419.555 99.4399 421.155 97.3999 421.475 95.1599C420.315 96.9999 418.235 97.9999 415.595 97.9999C413.755 97.9999 412.315 97.5599 410.955 96.5599C409.075 95.1999 408.195 93.4399 408.195 91.1599C408.195 86.9199 411.515 83.8799 416.155 83.8799C417.875 83.8799 419.395 84.3199 420.315 85.0799C420.275 84.8799 420.275 84.8799 420.275 84.5999C420.235 84.5199 420.235 82.2799 420.235 81.1999C414.515 81.3599 410.755 81.4799 408.995 81.5999C402.955 82.0399 402.955 82.0399 401.875 82.1999L401.715 77.4399C402.595 77.5199 402.955 77.5199 403.675 77.5199C404.675 77.5199 405.315 77.5199 410.475 77.3199C413.075 77.2399 413.475 77.2399 416.755 77.1599C418.075 77.1199 418.075 77.1199 420.155 77.0399C420.115 73.2399 420.115 73.2399 419.915 72.1999L424.955 72.1599C424.795 73.3999 424.795 73.4799 424.755 76.9199C431.715 76.8799 434.835 76.7999 436.315 76.6399L436.355 81.2399C434.875 81.1199 432.955 81.0399 429.635 81.0399C428.675 81.0399 427.955 81.0399 424.795 81.1199V83.7199ZM420.195 90.3199C420.195 88.6399 418.795 87.5599 416.595 87.5599C414.555 87.5599 412.875 88.9999 412.875 90.7599C412.875 92.5999 414.275 93.9199 416.275 93.9199C418.555 93.9199 420.195 92.3999 420.195 90.3199Z" fill="white"/>
<path d="M375.312 81.04L379.192 79.96C380.312 79.68 380.992 79.52 382.592 79.2C382.592 78.4 382.592 78.4 382.552 77C382.512 73.52 382.512 73.24 382.312 72.2H387.352C387.192 73.44 387.192 73.44 387.152 78.6C388.112 78.52 388.672 78.48 389.472 78.48C395.112 78.48 398.832 81.72 398.832 86.64C398.832 89.32 397.632 91.92 395.592 93.6C393.712 95.16 391.232 95.96 388.192 95.96C386.232 95.96 384.112 95.56 381.992 94.84C381.952 92.92 381.832 92.16 381.272 89.92C383.672 91 385.632 91.48 387.672 91.48C389.392 91.48 390.952 91 392.192 90.16C393.232 89.4 393.832 88.16 393.832 86.76C393.832 84.24 391.872 82.76 388.512 82.76C385.672 82.76 383.272 83.24 376.512 85.24C378.992 93.92 379.192 94.68 381.592 104.68C381.793 105.52 381.872 105.8 382.192 106.6L376.912 107.8C376.712 104.6 374.513 95.12 372.033 86.52C371.513 86.76 371.433 86.76 370.033 87.24C368.593 87.68 365.912 88.76 364.872 89.28L363.312 84.6C364.473 84.36 364.992 84.24 366.952 83.56C368.592 83 368.912 82.92 370.832 82.32C369.632 78.4 368.872 76.28 368.112 74.88L373.072 73.48C373.312 74.76 373.312 74.76 374.472 78.2C374.792 79.2 374.952 79.72 375.312 81.04Z" fill="white"/>
<path d="M332.913 72.04L337.993 72.32C337.513 73.68 337.313 74.72 336.553 80.04C336.273 81.72 336.113 83.08 336.033 84.04H336.153C336.233 83.8 336.233 83.8 336.393 83.16C336.793 81.76 337.833 79.8 338.913 78.4C341.113 75.68 343.593 74.32 346.513 74.32C349.233 74.32 351.633 75.6 353.353 77.92C355.353 80.6 356.233 83.84 356.233 88.56C356.233 96.28 352.633 102.04 345.913 105C343.873 105.92 341.073 106.72 338.073 107.24C337.273 104.96 336.833 104.08 335.713 102.52C339.713 102.08 342.033 101.48 344.473 100.24C349.113 97.88 351.233 94.08 351.233 88C351.233 82.24 349.313 79.04 345.873 79.04C344.353 79.04 342.953 79.72 341.553 81.16C338.433 84.4 336.513 89.32 336.513 94.08C336.513 94.28 336.513 94.56 336.513 94.92L331.713 95C331.753 94.76 331.753 94.56 331.753 94.48C331.753 94.32 331.753 94.08 331.753 93.72C331.713 92.56 331.633 89.6 331.633 88.8C331.633 85.56 331.873 81.12 332.193 78.36L332.793 73.4C332.873 72.72 332.913 72.56 332.913 72.04Z" fill="white"/>
<path d="M303.794 77.6H298.794C297.714 77.6 296.514 77.68 294.954 77.8V73C296.114 73.16 296.954 73.2 298.714 73.2H305.074C306.714 73.2 307.794 73.16 308.714 73C308.594 74.16 308.594 74.52 308.594 75.52C308.594 81.2 310.034 86.48 312.874 91.36C314.554 94.16 316.514 96.56 319.274 99.04C321.314 100.92 322.474 101.76 325.194 103.36C323.674 104.84 322.914 105.88 321.794 107.88C317.794 105.08 314.794 102.16 312.074 98.48C310.594 96.52 309.714 95 308.554 92.56C307.514 90.36 307.154 89.36 306.514 86.88C305.074 92 303.474 95.4 300.794 98.96C298.234 102.28 295.234 105.08 290.874 108C290.034 106.24 289.114 105.04 287.594 103.8C290.994 101.84 292.954 100.32 295.634 97.52C298.754 94.28 301.194 90 302.474 85.68C303.274 82.92 303.634 80.84 303.794 77.6Z" fill="white"/>
<path d="M252.754 92.16L253.194 87.56C255.034 88.28 256.154 88.52 260.234 89.08C260.394 87.64 260.754 84.96 260.954 83.48C258.594 83.16 257.954 83.08 255.234 82.48C254.674 82.36 254.474 82.32 253.874 82.2L254.274 77.8C255.954 78.44 258.794 79 261.514 79.24C262.074 75.88 262.314 73.8 262.314 72.6C262.314 72.48 262.314 72.4 262.274 72.2L267.594 72.68C267.154 73.92 267.034 74.52 266.314 79.44C270.834 79.36 273.154 79.16 275.434 78.6L275.274 83.28C274.754 83.32 274.554 83.36 273.674 83.44C270.794 83.68 269.514 83.76 268.074 83.76C267.674 83.76 267.314 83.76 265.594 83.72C265.194 86.64 265.074 87.44 264.834 89.36C266.034 89.4 266.354 89.4 266.794 89.4C269.634 89.4 272.514 89.12 274.434 88.6L274.314 93.2C273.914 93.2 273.794 93.2 273.114 93.32C271.354 93.52 268.994 93.68 267.114 93.68C266.474 93.68 266.114 93.68 264.554 93.6C264.434 94.68 264.354 95.72 264.354 96.44C264.354 98.4 264.794 99.64 265.834 100.56C266.994 101.56 268.594 102.04 270.794 102.04C275.874 102.04 278.794 99.8 278.794 95.88C278.794 93.56 277.594 91.32 275.194 89.12C277.434 88.96 278.274 88.8 280.154 88.12C281.154 89.28 281.594 89.88 282.034 90.64C283.074 92.4 283.754 94.68 283.754 96.52C283.754 99.36 282.354 102.12 279.914 104C277.634 105.76 274.634 106.64 270.874 106.64C263.594 106.64 259.634 103.16 259.634 96.72C259.634 95.68 259.674 94.68 259.834 93.32C257.434 93 255.874 92.76 254.274 92.4C253.434 92.2 253.314 92.2 252.754 92.16Z" fill="white"/>
<path d="M214.432 82.3999L214.152 77.1999C215.032 77.2399 215.472 77.2399 215.672 77.2399C216.392 77.2399 216.392 77.2399 222.272 76.8399C224.512 76.7199 231.152 76.3599 242.232 75.8399C245.512 75.6799 246.112 75.6399 246.832 75.4399L247.112 80.5599C246.672 80.5199 246.672 80.5199 246.272 80.5199C243.872 80.5199 240.912 81.3199 238.352 82.6799C233.272 85.3199 230.272 89.3199 230.272 93.3599C230.272 96.4799 232.232 98.8799 235.592 99.8799C237.552 100.48 240.112 100.92 241.552 100.92C241.592 100.92 241.952 100.92 242.352 100.88L241.632 106.32C241.152 106.2 240.952 106.16 240.272 106.08C235.872 105.52 233.352 104.8 230.912 103.44C227.232 101.36 225.192 97.9599 225.192 93.7999C225.192 90.3999 226.552 87.0399 228.992 84.3599C230.512 82.7199 231.952 81.6799 234.552 80.3599C231.312 80.8399 229.752 80.9599 221.072 81.5999C218.392 81.7999 215.992 82.0799 214.432 82.3999Z" fill="white"/>
<path d="M185.766 91.6001L184.766 86.8001C185.886 86.7201 185.886 86.7201 188.926 86.0401C194.366 84.8401 197.966 84.3601 201.286 84.3601C205.846 84.3601 208.926 85.6801 210.726 88.4401C211.726 89.9601 212.206 91.6401 212.206 93.6001C212.206 98.9201 208.446 103.24 202.086 105.24C199.606 106 198.606 106.16 193.406 106.76C193.006 104.76 192.686 104 191.686 102.2C191.966 102.2 192.126 102.2 192.286 102.2C193.766 102.2 196.006 101.96 197.966 101.6C201.086 101 202.846 100.28 204.646 98.8801C206.566 97.4401 207.486 95.6801 207.486 93.4801C207.486 90.3601 205.166 88.6801 200.926 88.6801C198.166 88.6801 195.086 89.1201 190.406 90.2401C187.846 90.8401 187.126 91.0401 185.766 91.6001Z" fill="white"/>
<path d="M168.806 81.52L173.326 82.8C173.166 83.12 173.166 83.12 172.846 83.96C172.446 85.08 172.406 85.12 172.286 85.48C173.926 85.88 175.086 86.44 176.446 87.44C179.006 89.36 180.246 91.84 180.246 95C180.246 99.36 177.886 102.76 173.366 105C171.006 106.16 168.726 106.76 165.206 107.12C164.766 105.4 164.406 104.68 163.086 102.6C166.326 102.56 168.366 102.12 170.726 101C173.926 99.48 175.406 97.52 175.406 94.76C175.406 92.24 173.766 90.2 170.926 89.24C168.726 94 166.846 96.88 163.966 99.88C160.366 103.68 156.806 105.64 153.486 105.64C149.766 105.64 147.246 102.8 147.246 98.64C147.246 95.36 148.646 92.2 151.206 89.68C152.806 88.12 154.286 87.12 156.686 86.08C156.686 84.8 156.766 83.2 156.846 81.28C156.406 81.28 154.246 81.24 150.366 81.12C149.966 81.12 149.686 81.12 149.606 81.12C149.486 81.12 149.126 81.12 148.686 81.16V76.68C150.486 77.08 152.846 77.28 156.166 77.28C156.206 77.28 156.246 77.28 157.046 77.28C157.086 76.48 157.086 76.48 157.206 74.88C157.246 74.36 157.286 73.36 157.286 72.6C157.286 72.44 157.286 72.28 157.206 71.96L162.166 72.2C161.846 73.28 161.686 74.32 161.446 77.12C167.846 76.76 173.526 75.96 176.606 75L176.806 79.6C176.246 79.64 176.086 79.64 175.246 79.76C170.846 80.48 164.366 81.08 161.166 81.16C161.046 82.88 161.006 84.16 160.966 85C163.126 84.56 164.046 84.48 166.486 84.48C166.966 84.48 167.286 84.48 168.006 84.56C168.446 83.28 168.686 82.44 168.806 81.52ZM156.766 90.64C155.006 91.8 154.326 92.4 153.526 93.4C152.326 94.96 151.726 96.6 151.726 98.28C151.726 100.08 152.606 101.2 154.006 101.2C155.126 101.2 156.206 100.72 157.486 99.68C156.966 97.08 156.766 94.52 156.766 90.64ZM161.286 96.68L161.366 96.72C161.526 96.48 161.526 96.48 161.806 96.16C163.686 94.04 165.286 91.48 166.766 88.16C166.326 88.12 166.126 88.12 165.726 88.12C163.966 88.12 162.526 88.32 160.926 88.84C160.966 92.52 160.966 92.92 161.206 95.72C161.246 95.96 161.246 95.96 161.246 96.24C161.246 96.44 161.246 96.48 161.286 96.68Z" fill="white"/>
<path d="M134.725 83L138.765 81C141.525 84.8 143.605 89.12 144.765 93.72L140.205 96C139.405 91.8 136.925 85.92 134.725 83ZM122.965 74.2L122.885 74.72C122.685 75.88 122.405 77.52 122.005 79.68C121.885 80.36 121.885 80.36 121.765 80.88C122.965 80.84 123.525 80.8 124.245 80.8C126.885 80.8 128.845 81.52 130.165 82.92C131.525 84.44 132.045 86.36 132.045 90C132.045 96.88 130.885 102.36 128.965 104.56C127.845 105.88 126.645 106.36 124.525 106.36C122.685 106.36 121.045 106.04 118.365 105.16C118.405 104.4 118.445 103.8 118.445 103.4C118.445 102.36 118.365 101.56 118.045 100C120.205 100.96 122.485 101.6 123.885 101.6C125.045 101.6 125.685 100.84 126.285 98.88C126.925 96.8 127.325 93.16 127.325 89.76C127.325 86.08 126.405 85 123.325 85C122.485 85 121.845 85.04 120.925 85.12C118.965 93.32 117.165 98.16 112.765 106.88L108.125 104.32C111.205 100.12 114.285 92.92 116.165 85.48C115.565 85.56 115.565 85.56 114.285 85.8L110.645 86.4C110.005 86.52 109.565 86.64 109.005 86.8L108.525 82.08C110.325 82.04 112.405 81.84 117.045 81.24C117.805 76.8 118.085 74.52 118.085 73.16C118.085 73 118.085 72.76 118.085 72.44L123.285 72.96C123.165 73.28 123.045 73.8 122.965 74.2ZM132.245 74.48L135.045 73.08C136.805 74.96 137.885 76.48 139.245 78.96L136.445 80.44C135.125 78 134.005 76.4 132.245 74.48ZM144.005 76.36L141.245 77.92C140.045 75.72 138.725 73.84 137.165 72.12L139.845 70.72C141.645 72.56 142.765 74.08 144.005 76.36Z" fill="white"/>
<path d="M99.2848 102.76V99.04C98.3248 100.08 97.9248 100.6 97.2448 101.76C94.7648 99.92 93.4048 98.48 92.0848 96.28C91.5648 97.4 91.0448 98.2 90.2048 99.28C89.2048 100.52 88.5248 101.12 86.8848 102.32C86.2448 101.16 85.5248 100.28 84.6048 99.44V103.72C84.6048 105.72 84.6448 106.92 84.8048 108.16H80.2448C80.3648 106.92 80.4448 105.6 80.4448 103.72V90.4C80.4448 89.16 80.4448 88.64 80.3648 87.52C81.3248 87.6 82.2048 87.64 83.9248 87.64H89.9248C89.9648 86.76 89.9648 86.64 89.9648 85.4V84.56H83.9248C82.3648 84.56 81.1648 84.6 79.8848 84.72V80.64C81.0048 80.8 82.0848 80.84 83.9248 80.84H100.245C102.445 80.84 103.485 80.8 104.405 80.64V84.72C103.165 84.6 102.085 84.56 100.245 84.56H94.0048L93.9648 86.24C93.9648 86.6 93.9648 86.76 93.9248 87.64H99.7248C102.005 87.64 102.685 87.6 103.645 87.48C103.525 88.68 103.485 89.72 103.485 91.4V104C103.485 105.68 103.085 106.56 102.085 107.12C101.125 107.64 99.9648 107.8 97.0848 107.8C96.6448 107.8 95.9648 107.8 94.7248 107.76C94.5648 106.28 94.2448 104.96 93.6448 103.72C94.9248 103.84 96.4448 103.96 97.2848 103.96C99.0048 103.96 99.2848 103.8 99.2848 102.76ZM99.2848 91.08H93.6048C93.5248 91.48 93.4848 91.64 93.4048 92.12C94.7648 94.72 96.2048 96.2 99.2848 98.32V91.08ZM84.6048 91.08V98.72C85.5648 98.08 86.3248 97.44 87.1248 96.48C88.4448 94.96 89.1648 93.44 89.6048 91.08H84.6048ZM87.3248 74.48V74C87.3248 72.72 87.2848 72.12 87.1248 71.24H92.0048C91.8448 72 91.8048 72.68 91.8048 74.04V74.48H100.605C102.565 74.48 104.125 74.4 105.365 74.24V78.56C104.045 78.4 102.485 78.36 100.565 78.36H78.7648C78.7248 92.68 78.3648 96.2 76.2048 101.72C75.2448 104.2 74.0048 106.2 72.0448 108.32C70.8448 106.56 70.0448 105.72 68.7248 104.72C70.3248 103.36 71.1248 102.28 72.1248 100.12C72.9248 98.32 73.5248 96.2 73.9248 93.36C72.6848 94.12 71.2048 94.92 70.0848 95.52C69.9248 95.6 69.4848 95.84 69.2848 95.96L68.0448 91.6C69.5648 91.24 71.8848 90.28 74.3248 88.96C74.4448 86.4 74.4848 84.88 74.4848 81.44C74.4848 80.4 74.4848 79.48 74.4848 78.96C74.4448 76.4 74.4048 75.72 74.2048 74.28C75.6448 74.44 76.9648 74.48 79.2848 74.48H87.3248ZM67.9648 80.08L70.9648 77.8C72.8848 81.04 73.5248 82.32 74.4048 84.8L71.3648 87.36C70.0848 83.84 69.1648 81.84 67.9648 80.08Z" fill="white"/>
<path d="M60.8881 87.3201V90.8801H61.5281C63.1681 90.8801 64.2481 90.8401 65.4481 90.6801V94.9601C64.2481 94.8001 63.1281 94.7201 61.5281 94.7201H60.8881V104.32C60.8881 105.56 60.5281 106.56 59.8881 107.08C59.0081 107.84 57.7681 108.12 55.1681 108.12C54.2881 108.12 53.6081 108.08 51.4881 107.96C51.2481 106.24 50.9681 105.12 50.3281 103.72C52.0881 104 53.5281 104.16 54.8481 104.16C56.2081 104.16 56.5681 103.96 56.5681 103.08V94.7201H46.4881C44.5681 94.7201 43.4081 94.7601 42.0081 94.9201V91.4001C40.1681 92.2401 39.7281 92.4001 38.5281 92.8801V104.24C38.5281 107.4 37.4881 108.16 33.2081 108.16C32.4881 108.16 31.8881 108.12 30.5681 108.08C30.4081 106.4 30.2081 105.56 29.6481 104C31.1281 104.12 32.1281 104.2 33.0081 104.2C34.0481 104.2 34.3281 103.96 34.3281 103V94.4001C32.2481 95.1601 32.2481 95.1601 31.5281 95.4001C31.1281 95.5201 30.4081 95.8001 29.9681 95.9601L29.3281 91.5201C30.3281 91.4401 31.4881 91.1201 34.3281 90.2001V82.8001H32.5281C31.4481 82.8001 30.5681 82.8401 29.6081 82.9601V78.6801C30.6081 78.8801 31.4081 78.9201 32.5681 78.9201H34.3281V75.6001C34.3281 73.7201 34.2881 72.8401 34.0881 71.5601H38.7681C38.5681 72.7601 38.5281 73.7601 38.5281 75.5601V78.9201H39.8081C40.8081 78.9201 41.2881 78.8801 42.0481 78.7601V82.9201C41.3281 82.8401 40.6881 82.8001 39.8481 82.8001H38.5281V88.8001C39.8881 88.3201 40.2881 88.1601 41.8481 87.4801L41.6481 87.5201V83.3601C42.6481 83.4801 44.3281 83.5601 46.1281 83.5601H50.9681V79.6001H47.3281C45.5281 79.6001 44.4081 79.6401 43.2881 79.8001V75.5601C44.4081 75.7201 45.4881 75.8001 47.3281 75.8001H50.9681V74.6001C50.9681 73.4801 50.8881 72.6001 50.7281 71.6001H55.4481C55.2481 72.6001 55.2081 73.3601 55.2081 74.5601V75.8001H59.9281C61.7681 75.8001 62.8481 75.7201 64.0081 75.5601V79.8001C62.8881 79.6401 61.7681 79.6001 59.9681 79.6001H55.2081V83.5601H61.0081C62.8481 83.5601 64.4081 83.4801 65.5281 83.3201V87.5201C64.4881 87.4001 63.0481 87.3201 60.8881 87.3201ZM56.5681 87.3201H46.1281C44.8481 87.3201 42.8481 87.4001 42.0481 87.4401V90.6801C43.3281 90.8401 44.5281 90.8801 46.4881 90.8801H56.5681V87.3201ZM43.7681 97.5201L47.2081 95.2401C49.2081 97.3601 50.2481 98.6401 51.9281 101.28L48.4481 103.88C46.7681 100.96 46.2081 100.16 43.7681 97.5201Z" fill="white"/>
</svg>
