<svg width="696" height="156" viewBox="0 0 696 156" fill="none" xmlns="http://www.w3.org/2000/svg">
<path d="M396.683 96.2558L396.853 86.3743C399.92 86.8854 403.327 87.1409 408.268 87.1409C409.29 87.1409 410.227 87.1409 412.186 87.0557C412.953 82.9668 413.805 76.4075 413.805 74.0224C413.805 73.6816 413.805 73.1705 413.72 72.489L424.964 73.5112C424.368 75.4705 424.368 75.4705 423.346 81.6891C422.92 84.0742 422.835 84.5854 422.494 86.5446C428.798 85.9483 432.801 85.2668 437.06 83.9891L437.486 93.7854C436.805 93.8706 436.805 93.8706 434.76 94.2113C430.416 95.0632 423.601 95.915 420.79 96.0002C419.853 101.282 417.723 110.311 415.509 118.063C413.038 126.923 411.59 131.182 405.968 146.26L395.234 142.086C401.112 131.267 407.671 111.419 410.483 96.2558C409.886 96.341 409.546 96.341 409.375 96.341H404.434C404.008 96.341 403.157 96.341 401.708 96.2558C400.175 96.1706 398.983 96.1706 398.301 96.1706C397.875 96.1706 397.449 96.1706 396.683 96.2558ZM464.235 98.1299L464.405 108.267C460.316 107.841 457.931 107.671 453.672 107.671C445.238 107.671 439.616 108.267 431.183 110.141L430.416 100.771C442.512 98.4706 446.601 98.0447 455.801 98.0447C458.101 98.0447 458.868 98.0447 464.235 98.1299ZM430.672 116.019L439.105 119.426C435.698 123.686 434.675 125.815 434.675 128.797C434.675 133.141 438.935 135.356 447.453 135.356C453.672 135.356 461.849 133.993 466.79 132.204L467.557 142.682C466.024 142.852 465.342 142.937 463.383 143.278C456.312 144.3 452.564 144.641 447.538 144.641C439.957 144.641 434.505 143.534 430.416 141.234C426.753 139.104 424.368 135.015 424.368 130.756C424.368 126.241 425.986 122.408 430.672 116.019Z" fill="#F19B11"/>
<path d="M327.341 114.4L325.211 104.178C327.596 104.008 327.596 104.008 334.07 102.559C345.655 100.004 353.322 98.9817 360.393 98.9817C370.104 98.9817 376.663 101.793 380.496 107.671C382.626 110.908 383.648 114.485 383.648 118.66C383.648 129.989 375.641 139.189 362.096 143.449C356.815 145.067 354.685 145.408 343.611 146.686C342.759 142.426 342.078 140.808 339.948 136.974C340.544 136.974 340.885 136.974 341.226 136.974C344.378 136.974 349.148 136.463 353.322 135.697C359.967 134.419 363.715 132.886 367.548 129.904C371.637 126.837 373.596 123.089 373.596 118.404C373.596 111.76 368.656 108.182 359.626 108.182C353.748 108.182 347.189 109.119 337.222 111.504C331.77 112.782 330.237 113.208 327.341 114.4Z" fill="#F19B11"/>
<path d="M244.198 96.2558L244.369 86.3743C247.435 86.8854 250.843 87.1409 255.783 87.1409C256.806 87.1409 257.743 87.1409 259.702 87.0557C260.469 82.9668 261.32 76.4075 261.32 74.0224C261.32 73.6816 261.32 73.1705 261.235 72.489L272.48 73.5112C271.883 75.4705 271.883 75.4705 270.861 81.6891C270.435 84.0742 270.35 84.5854 270.009 86.5446C276.313 85.9483 280.317 85.2668 284.576 83.9891L285.002 93.7854C284.321 93.8706 284.321 93.8706 282.276 94.2113C277.932 95.0632 271.117 95.915 268.306 96.0002C267.369 101.282 265.239 110.311 263.024 118.063C260.554 126.923 259.106 131.182 253.483 146.26L242.75 142.086C248.628 131.267 255.187 111.419 257.998 96.2558C257.402 96.341 257.061 96.341 256.891 96.341H251.95C251.524 96.341 250.672 96.341 249.224 96.2558C247.691 96.1706 246.498 96.1706 245.817 96.1706C245.391 96.1706 244.965 96.1706 244.198 96.2558ZM311.75 98.1299L311.921 108.267C307.832 107.841 305.447 107.671 301.187 107.671C292.754 107.671 287.132 108.267 278.698 110.141L277.932 100.771C290.028 98.4706 294.117 98.0447 303.317 98.0447C305.617 98.0447 306.384 98.0447 311.75 98.1299ZM278.187 116.019L286.621 119.426C283.213 123.686 282.191 125.815 282.191 128.797C282.191 133.141 286.45 135.356 294.969 135.356C301.187 135.356 309.365 133.993 314.306 132.204L315.073 142.682C313.539 142.852 312.858 142.937 310.898 143.278C303.828 144.3 300.08 144.641 295.054 144.641C287.472 144.641 282.021 143.534 277.932 141.234C274.269 139.104 271.883 135.015 271.883 130.756C271.883 126.241 273.502 122.408 278.187 116.019Z" fill="#F19B11"/>
<path d="M188.405 100.089L188.576 90.2928C192.579 91.3151 197.009 91.6558 203.994 91.6558C206.976 91.6558 208.85 91.6558 211.831 91.4854C211.831 86.4595 211.746 82.2002 211.746 78.7076C211.746 76.8335 211.661 75.5557 211.49 74.6187L222.139 74.3631C221.713 76.7483 221.542 80.8372 221.542 86.8854C221.542 87.8225 221.542 89.1002 221.542 90.804C225.972 90.2928 229.72 89.6114 233.042 88.7595C233.554 88.5891 233.554 88.5891 234.916 88.078L235.598 87.9076L235.939 97.5336C235.087 97.6188 235.002 97.6188 233.468 97.9595C230.572 98.5558 226.142 99.3225 221.628 99.8336C221.628 100.6 221.628 100.6 221.628 101.708C221.628 106.478 221.628 106.648 222.479 120.96C228.613 123.856 230.742 125.049 235.854 128.712C236.961 129.478 237.387 129.734 238.239 130.16L234.15 140.467C232.702 138.763 230.146 136.549 227.761 135.015C224.865 133.141 222.905 131.863 222.394 131.523C222.394 132.034 222.394 132.204 222.394 132.715C222.394 134.589 222.139 136.293 221.713 137.486C219.753 142.512 213.79 145.493 205.527 145.493C194.368 145.493 187.553 140.212 187.553 131.523C187.553 123.26 194.794 117.467 205.102 117.467C208.253 117.467 210.383 117.808 212.683 118.66C212.427 116.53 212.342 112.356 212.002 100.515C208.594 100.6 206.55 100.685 204.335 100.685C201.183 100.685 197.776 100.6 193.772 100.26C192.579 100.26 191.642 100.174 191.216 100.174C190.45 100.089 189.938 100.089 189.768 100.089C189.342 100.004 189.087 100.004 188.916 100.004C188.831 100.004 188.661 100.004 188.405 100.089ZM212.853 127.349C210.042 126.326 208.424 125.986 205.868 125.986C200.416 125.986 197.009 128.115 197.009 131.608C197.009 134.76 200.076 136.889 204.846 136.889C207.998 136.889 210.468 135.952 211.746 134.249C212.513 133.226 212.853 131.949 212.853 129.649C212.853 128.712 212.853 127.349 212.853 127.349ZM179.546 145.493L169.324 146.089C169.238 145.238 169.238 144.726 168.898 142.767C167.279 132.8 166.598 124.623 166.598 115.678C166.598 108.011 167.109 100.515 168.216 93.104C168.642 90.5484 168.642 90.5484 170.516 80.9224C171.112 77.9409 171.453 75.4706 171.453 74.6187C171.453 74.5335 171.453 74.4483 171.453 74.278L182.953 75.4706C179.461 82.8817 176.224 103.411 176.138 118.234C176.053 121.3 176.053 121.3 176.053 122.663C176.053 123.26 176.053 123.26 176.053 124.026C176.053 124.708 176.053 124.878 175.968 125.815H176.053C176.479 124.878 176.479 124.878 177.075 123.345C177.246 122.749 177.672 121.811 178.098 120.449C178.864 118.66 178.864 118.66 179.716 116.615C179.887 116.36 179.972 116.104 180.738 113.974L187.809 117.126C182.783 127.008 179.375 137.571 179.375 143.193C179.375 143.789 179.375 143.875 179.546 145.493Z" fill="#F19B11"/>
<path d="M98.6199 90.6336H94.4458C92.0606 95.4892 90.4421 98.0447 87.0346 102.219C84.8198 99.5781 82.9457 97.8743 79.7087 95.7447C85.1606 89.9521 88.2272 84.3298 90.6124 75.8113C91.2939 73.5965 91.5495 72.1483 91.6347 70.5298L101.261 72.4039C100.835 73.5113 100.579 74.2779 99.8125 76.8335C99.3014 78.6224 98.7902 80.0706 98.0236 82.2002H110.887C114.89 82.2002 116.935 82.115 119.32 81.7743V91.0595C116.85 90.8039 114.124 90.6336 110.887 90.6336H107.735C107.564 99.6632 107.564 99.6632 107.224 104.008H112.335C115.998 104.008 117.957 103.923 120.342 103.582V112.952C118.042 112.611 115.742 112.526 112.079 112.526H106.372C106.201 113.719 106.116 114.145 105.861 115.423C107.82 118.915 108.501 119.937 110.29 122.152C113.613 126.412 116.168 128.882 121.364 132.886C119.15 135.697 117.787 138.167 116.168 142.171C110.035 136.549 105.775 131.437 102.964 126.071C99.6421 134.76 95.6384 140.041 86.5235 147.623C84.6494 144.215 82.9457 142.426 79.4531 139.956C86.1828 135.782 90.6124 130.926 93.7643 124.537C95.3828 121.045 96.405 117.467 97.2569 112.526H90.6976C86.1828 112.526 83.8828 112.611 81.4124 113.037V103.497C83.8828 103.923 86.0124 104.008 90.9532 104.008H98.1939C98.3643 101.367 98.5347 96.8521 98.6199 90.6336ZM131.416 141.404V147.197H121.961C122.216 144.471 122.472 140.808 122.472 137.4V87.2262C122.472 83.8187 122.301 81.0076 121.961 78.1965C124.431 78.5372 126.135 78.6224 129.798 78.6224H147.687C151.094 78.6224 153.139 78.5372 155.609 78.1965C155.268 80.9224 155.183 83.3076 155.183 87.2262V136.549C155.183 140.467 155.353 144.13 155.694 147.282H146.068V141.404H131.416ZM131.587 87.141V132.886H146.068V87.141H131.587Z" fill="#F19B11"/>
<path d="M34.8977 90.9743H18.2865C15.4754 95.1484 13.1754 97.6188 9.00128 101.452C6.27534 98.5558 5.50867 97.7891 1.59014 95.0632C8.3198 89.5261 11.3865 85.6928 14.5383 79.2187C15.9013 76.4927 16.8384 73.9372 17.1791 72.0631L27.0606 74.7038C25.0162 78.9631 23.7384 81.5187 23.3125 82.3705H34.8977V79.3891C34.8977 75.6409 34.8125 73.852 34.3866 71.4668H44.8644C44.4385 73.9372 44.2681 75.8964 44.2681 79.4742V82.3705H61.4756C65.7349 82.3705 68.2904 82.2002 70.7608 81.8594V91.4854C68.4608 91.1447 65.4793 90.9743 61.5608 90.9743H44.2681V101.708H67.183C71.4423 101.708 74.3386 101.537 76.8942 101.197V110.908C74.0831 110.567 71.1867 110.397 67.2682 110.397H10.4494C6.5309 110.397 3.80496 110.567 0.738281 110.908V101.197C3.63459 101.537 6.19016 101.708 10.1087 101.708H34.8977V90.9743ZM19.905 149.838H10.0235C10.3642 147.537 10.5346 144.045 10.5346 140.297V124.537C10.5346 120.534 10.4494 118.66 10.1939 116.445C12.7494 116.7 14.7939 116.786 18.7124 116.786H59.5163C63.3497 116.786 65.3941 116.7 67.9497 116.445C67.6941 118.66 67.6089 120.534 67.6089 124.537V140.382C67.6089 144.726 67.7793 147.367 68.1201 149.838H58.1533V146.089H19.905V149.838ZM19.905 125.304V137.486H58.2385V125.304H19.905Z" fill="#F19B11"/>
<path d="M593.923 107.027L591.703 96.1586C594.305 95.929 595.53 95.7759 600.658 94.6278C618.109 90.8774 622.242 90.2651 631.12 90.2651C646.275 90.2651 656.148 98.7609 656.148 111.772C656.148 122.182 650.025 130.984 639.157 136.265C632.192 139.709 626.222 141.087 612.215 142.617C611.22 138.484 610.532 136.877 608.312 132.744C620.558 132.208 626.987 131.06 633.493 128.228C639.004 125.779 643.52 121.416 645.05 116.9C645.586 115.37 645.892 113.456 645.892 111.466C645.892 107.257 643.749 103.583 640.075 101.516C637.626 100.139 634.412 99.4497 630.202 99.4497C622.242 99.4497 612.368 101.21 600.046 104.884C596.142 106.032 595.53 106.185 593.923 107.027Z" fill="white"/>
<path d="M561.438 146.037H507.28C494.12 146.037 491.421 146.206 485.516 146.88C486.528 137.264 487.709 131.359 489.902 125.285C494.458 112.968 502.05 102.171 513.016 92.2163C518.921 86.9861 523.983 83.1057 540.855 71.8017C556.377 61.1725 561.101 55.6049 561.101 47.0004C561.101 35.5276 552.159 28.4416 537.818 28.4416C528.032 28.4416 520.609 31.8159 516.391 38.3958C513.523 42.445 512.342 46.1568 511.161 53.9177L487.034 51.0496C489.396 38.2271 492.433 31.3097 498.676 24.0549C507.111 14.2694 520.44 9.03918 537.312 9.03918C566.837 9.03918 585.058 23.2114 585.058 46.3255C585.058 57.4608 581.347 65.5592 573.079 73.3201C568.355 77.7067 566.668 79.0565 544.735 94.0722C537.312 99.3024 528.876 106.389 524.658 110.944C519.596 116.343 517.572 119.717 515.041 126.128H562.282C572.911 126.128 581.347 125.622 586.914 124.779V147.049C578.984 146.374 572.236 146.037 561.438 146.037Z" fill="white"/>
<path d="M637.459 111.466C637.459 110.299 636.955 109.439 635.942 108.869C635.203 108.453 633.583 107.886 630.204 107.886C623.392 107.886 614.398 109.408 602.459 112.968C602.449 112.971 602.438 112.974 602.428 112.977C600.343 113.59 599.469 113.843 598.847 114.055C598.486 114.178 598.331 114.242 597.84 114.5C595.491 115.73 592.701 115.785 590.306 114.647C587.912 113.51 586.19 111.312 585.66 108.715L583.44 97.8467C582.959 95.4918 583.506 93.0431 584.942 91.1162C586.379 89.1894 588.57 87.9673 590.964 87.7559C593.093 87.5679 593.937 87.4882 598.817 86.3955C598.841 86.3903 598.865 86.3849 598.888 86.3799C616.441 82.6076 621.303 81.8291 631.123 81.8291C640.227 81.8291 648.591 84.388 654.819 89.7422C661.172 95.2037 664.587 102.98 664.587 111.772C664.587 126.019 656.03 137.446 642.846 143.853L642.845 143.852C634.554 147.943 627.396 149.444 613.135 151.003C608.915 151.464 605.01 148.718 604.016 144.592C603.23 141.326 602.851 140.401 600.883 136.735C599.51 134.179 599.547 131.096 600.981 128.573C602.416 126.051 605.047 124.443 607.946 124.316C619.785 123.798 625.006 122.718 630.103 120.503C634.131 118.703 636.503 115.846 637.063 114.192L637.091 114.113C637.265 113.616 637.459 112.665 637.459 111.466ZM645.894 111.466C645.894 113.456 645.588 115.37 645.053 116.9C643.522 121.416 639.007 125.779 633.496 128.229L632.886 128.488C626.582 131.131 620.178 132.225 608.314 132.744C610.534 136.877 611.223 138.484 612.218 142.617C626.224 141.086 632.194 139.709 639.159 136.265C649.858 131.066 655.958 122.456 656.146 112.259L656.151 111.772C656.151 98.9641 646.583 90.5317 631.829 90.2715L631.123 90.2646C622.244 90.2646 618.111 90.8776 600.661 94.6279L598.91 95.0137C595.205 95.8152 593.983 95.9573 591.706 96.1582L593.926 107.027C595.533 106.185 596.145 106.032 600.049 104.884C612.371 101.21 622.244 99.4493 630.204 99.4492C634.413 99.4492 637.629 100.139 640.078 101.517C643.751 103.583 645.894 107.256 645.894 111.466Z" fill="#32A9B9"/>
<path d="M585.057 46.3252C585.057 23.2113 566.835 9.03906 537.31 9.03906C520.439 9.03908 507.11 14.2693 498.674 24.0547C492.432 31.3095 489.395 38.2274 487.033 51.0498L511.159 53.918C512.34 46.157 513.521 42.4447 516.389 38.3955C520.607 31.8158 528.031 28.4415 537.816 28.4414C552.157 28.4414 561.099 35.5275 561.099 47C561.099 55.6045 556.375 61.1726 540.853 71.8018C523.982 83.1057 518.92 86.9866 513.015 92.2168L511.997 93.1523C501.577 102.847 494.314 113.354 489.901 125.285C487.708 131.359 486.526 137.264 485.514 146.881C490.681 146.29 493.394 146.087 502.807 146.046L507.279 146.037H561.437C572.235 146.037 578.983 146.374 586.913 147.049V124.778C581.345 125.622 572.909 126.128 562.28 126.128V117.692C572.729 117.692 580.686 117.19 585.649 116.438C588.079 116.07 590.549 116.78 592.413 118.383C594.276 119.985 595.348 122.321 595.348 124.778V147.049C595.348 149.41 594.359 151.664 592.62 153.262C590.88 154.859 588.551 155.655 586.198 155.455C578.513 154.801 572.003 154.473 561.437 154.473H507.279C494.24 154.473 491.909 154.64 486.472 155.262C483.93 155.552 481.393 154.673 479.576 152.872C477.758 151.071 476.857 148.542 477.125 145.997C478.174 136.028 479.453 129.38 481.966 122.42L481.989 122.358C487.079 108.596 495.524 96.7 507.345 85.9697L507.421 85.9014C513.753 80.293 519.19 76.1637 536.086 64.8418C543.809 59.5537 547.985 56.0765 550.281 53.2842C552.18 50.9748 552.664 49.3186 552.664 47C552.663 43.6713 551.475 41.5259 549.583 40.0195C547.47 38.3387 543.7 36.877 537.816 36.877C529.986 36.877 525.72 39.4722 523.492 42.9482C523.422 43.0577 523.348 43.1654 523.273 43.2715C521.524 45.7409 520.603 47.9257 519.499 55.1865C518.814 59.6862 514.683 62.832 510.164 62.2949L486.037 59.4268C483.722 59.1516 481.625 57.9309 480.242 56.0547C478.859 54.1785 478.315 51.8137 478.737 49.5215C481.284 35.6935 484.795 27.2513 492.28 18.5527L492.285 18.5469C502.763 6.3924 518.749 0.603529 537.31 0.603516C553.308 0.603516 567.277 4.43252 577.444 12.3633C587.853 20.483 593.493 32.3174 593.493 46.3252C593.493 59.9349 588.709 70.217 578.852 79.4707C578.841 79.4812 578.829 79.4915 578.818 79.502C573.553 84.3908 571.309 86.1013 549.563 100.989C542.428 106.019 534.518 112.709 530.846 116.675C530.834 116.688 530.823 116.701 530.811 116.714C530.495 117.051 530.195 117.376 529.909 117.692H562.28V126.128H515.04C517.412 120.118 519.34 116.776 523.742 111.934L524.657 110.944C528.875 106.389 537.31 99.3025 544.734 94.0723C565.296 79.9952 568.064 77.929 572.222 74.1113L573.078 73.3203C581.086 65.8018 584.821 57.9665 585.046 47.3604L585.057 46.3252Z" fill="#32A9B9"/>
<path d="M664.805 47.0547L666.281 41.5488C668.272 42.5441 670.758 43.4156 674.636 44.4547C676.456 44.9422 677.234 45.0996 679.763 45.6231C681.733 37.1196 681.801 36.6758 681.975 34.8753L688.081 36.4088C687.78 37.1492 687.703 37.4364 687.55 38.011C687.421 38.4897 687.306 38.9206 686.824 41.1008C686.683 41.6275 686.291 43.4725 685.566 46.5623C689.107 46.9465 691.354 46.9843 693.187 46.6545L691.996 52.4417C691.156 52.3194 690.856 52.2903 689.186 52.2021C686.904 52.1036 686.447 52.0839 684.324 51.7716C684.103 52.7899 683.987 53.2208 683.756 54.0826C682.396 59.1577 680.997 63.0417 679.685 65.256C677.567 68.9477 675.061 71.4064 671.738 73.0819C669.907 73.9769 668.371 74.5402 665.544 75.3222C664.446 72.7187 663.872 71.7953 662.106 69.5773C665.759 68.9655 668.433 67.9884 670.83 66.3214C674.128 63.9722 675.887 60.8517 677.786 53.7657C678.055 52.7603 678.171 52.3294 678.546 50.7366C676.88 50.4441 674.378 49.8248 671.984 49.1834C670.643 48.8242 668.884 48.3016 667.652 47.9202C666.29 47.4524 666.098 47.4011 665.524 47.2472C665.332 47.1958 665.093 47.1317 664.805 47.0547ZM660.086 52.4099L663.783 55.6583C659.071 60.6049 655.226 66.1431 654.207 69.5647L648.576 68.3638C648.708 67.6807 648.724 67.4284 648.728 66.4546C648.981 60.7237 649.724 55.8427 651.174 50.4325C652.624 45.0222 653.668 42.2744 657.808 32.7614C658.634 30.8275 658.823 30.3137 659.092 29.3082L665.245 31.624C664.158 33.3852 663.575 34.4094 662.292 37.0931C660.435 40.9575 659.885 42.2467 658.52 46.1915C657.434 49.2873 656.966 50.6501 656.722 51.5598C656.683 51.7034 656.53 52.278 656.372 53.0568C656.231 53.5835 656.013 54.3974 655.432 56.7563C655.33 57.1393 655.253 57.4266 655.201 57.6181C655.044 58.3969 655.015 58.697 654.81 59.4631C656.329 57.0479 658.36 54.2566 660.086 52.4099Z" fill="#F19B11"/>
<path d="M607.937 28.8925L609.521 23.3644C611.168 24.1135 613.045 24.7703 615.822 25.5143C616.396 25.6683 616.923 25.8094 618.037 26.0566C619.083 23.8739 620.55 20.3156 620.909 18.975C620.961 18.7835 621.038 18.4962 621.092 18.1004L627.258 20.3683C626.689 21.3447 626.577 21.5712 625.492 23.8975C625.242 24.4464 624.966 25.091 624.592 25.9144C624.48 26.1409 624.281 26.4983 623.907 27.3216C627.096 27.8682 630.049 28.1463 632.479 28.079L631.243 33.6491C630.991 33.6328 630.847 33.5944 630.799 33.5815L629.647 33.478C626.285 33.193 622.674 32.6874 621.525 32.3795C617.278 41.1453 612.742 48.4994 605.638 58.3474L600.234 54.3849C604.835 49.6649 611.757 39.1527 615.681 31.0187C615.441 30.9546 615.25 30.9032 615.202 30.8904L614.162 30.5603L611.863 29.9445C611.816 29.9317 611.385 29.8162 610.762 29.6495C610.105 29.422 609.243 29.1911 608.86 29.0884C608.621 29.0243 608.381 28.9601 607.937 28.8925ZM637.533 25.6872L641.333 24.9095C642.837 27.7242 643.642 29.89 644.475 33.2946L640.649 34.168C639.851 30.8241 639.024 28.5498 637.533 25.6872ZM645.635 40.0713L644.204 45.7944C641.97 44.9392 640.655 44.4843 638.262 43.8428C633.522 42.5728 630.272 42.0612 625.237 41.8923L626.23 36.4624C633.327 36.9786 635.737 37.3678 640.908 38.7533C642.344 39.1382 643.446 39.4333 645.635 40.0713ZM624.077 45.0711L628.304 48.2562C625.735 50.1849 624.852 51.18 624.39 52.9036C623.736 55.3454 625.796 57.2316 630.584 58.5145C634.079 59.451 638.881 59.9165 641.927 59.6552L640.793 65.6117C639.906 65.4766 639.653 65.4603 638.357 65.3183C634.217 64.8759 632.059 64.5029 629.234 63.746C624.973 62.6043 622.075 61.1608 620.123 59.2523C618.385 57.5037 617.661 54.8464 618.302 52.4525C618.982 49.915 620.469 48.0042 624.077 45.0711ZM651.006 31.7091L647.202 32.6912C646.471 29.673 645.494 26.9994 644.179 24.4403L647.836 23.6242C649.4 26.4038 650.253 28.5824 651.006 31.7091Z" fill="#F19B11"/>
</svg>
